<?xml version='1.0' encoding='UTF-8'?>
<!DOCTYPE svg>
<!-- Creator: CorelDRAW X8 -->
<svg xmlns="http://www.w3.org/2000/svg" xml:space="preserve" xmlns:xml="http://www.w3.org/XML/1998/namespace" clip-rule="evenodd" viewBox="0 0 3150 3543"  version="1.1" text-rendering="geometricPrecision" height="3.54331in" shape-rendering="geometricPrecision" width="3.14961in" image-rendering="optimizeQuality" fill-rule="evenodd">
    <desc >
        <referenceFile >BLDC Schematic.svg</referenceFile>
    </desc>
    <g  id="Layer_x0020_1" gorn="0.1">
        <metadata  id="CorelCorpID_0Corel-Layer"/>
        <path d="M1239 2194c0,100 85,181 189,181 104,0 189,-81 189,-181 0,100 84,181 188,181 105,0 189,-81 189,-181 0,100 85,181 189,181 104,0 189,-81 189,-181 0,100 84,181 188,181 105,0 189,-81 189,-181m7 -12l0 1152 -2248 0"  fill="none" stroke-width="27.7756" stroke="#373435"/>
        <path d="M2768 2175c87,-50 115,-164 63,-254 -52,-91 -165,-123 -251,-73 86,-50 114,-164 62,-254 -52,-91 -165,-123 -251,-73 86,-50 114,-164 62,-254 -52,-90 -164,-123 -251,-73 87,-50 115,-164 63,-254 -53,-90 -165,-123 -252,-73"  fill="none" stroke-width="27.7756" stroke="#373435"/>
        <path d="M1981 863c-86,-50 -199,-18 -251,73 -52,90 -24,204 63,254 -87,-50 -199,-18 -252,73 -52,90 -24,204 63,254 -87,-50 -199,-18 -251,72 -52,91 -24,204 62,254 -86,-50 -199,-17 -251,73 -52,91 -24,204 63,254"  fill="none" stroke-width="27.7756" stroke="#373435"/>
        <circle cy="1741" r="1087"  fill="none" stroke-width="69.4409" stroke="#373435" cx="1997"/>
        <circle cy="2180" r="22"  fill="#373435" stroke-width="6.94488" stroke="#373435" cx="1237"/>
        <circle cy="2182" r="22"  fill="#373435" stroke-width="6.94488" stroke="#373435" cx="2756"/>
        <circle cy="872" r="22"  fill="#373435" stroke-width="6.94488" stroke="#373435" cx="1998"/>
        <circle cy="1741" r="362"  fill="none" stroke-width="27.7756" stroke="#373435" cx="1997"/>
        <polyline  fill="none" stroke-width="27.7756" points="1998,872 1997,156 508,157 " stroke="#373435"/>
        <line y2="2177"  fill="none" x1="1237" x2="508" stroke-width="27.7756" y1="2180" stroke="#373435"/>
        <rect x="86"  fill="none" height="181" stroke-width="27.7756" id="connector2pin" stroke="#373435" y="2087" width="422" gorn="0.1.11"/>
        <rect x="86"  fill="none" height="181" stroke-width="27.7756" id="connector3pin" stroke="#373435" y="3241" width="422" gorn="0.1.12"/>
        <polyline  fill="none" stroke-width="27.7756" points="1875,1861 1875,1607 1997,1741 2119,1607 2119,1861 " stroke="#373435"/>
        <rect x="86"  fill="none" height="181" stroke-width="27.7756" id="connector1pin" stroke="#373435" y="76" width="422" gorn="0.1.14"/>
    </g>
</svg>
