<?xml version='1.0' encoding='UTF-8'?>
<!DOCTYPE svg>
<!-- Creator: CorelDRAW X8 -->
<svg xmlns="http://www.w3.org/2000/svg" xml:space="preserve" xmlns:xml="http://www.w3.org/XML/1998/namespace" clip-rule="evenodd" viewBox="0 0 2756 2362"  version="1.1" text-rendering="geometricPrecision" height="2.3622in" shape-rendering="geometricPrecision" width="2.75591in" image-rendering="optimizeQuality" fill-rule="evenodd">
    <desc >
        <referenceFile >ESC Schematic.svg</referenceFile>
    </desc>
    <g  id="Layer_x0020_1" gorn="0.1">
        <metadata  id="CorelCorpID_0Corel-Layer"/>
        <path d="M439 147l1907 0 0 1937 -1907 0 0 -1937zm649 890l0 -239 172 0 0 28 -140 0 0 73 131 0 0 28 -131 0 0 82 146 0 0 28 -178 0zm211 -77l30 -3c2,12 5,22 10,30 5,8 13,14 24,19 11,4 23,7 37,7 12,0 22,-2 31,-6 10,-3 17,-8 21,-15 5,-6 7,-13 7,-20 0,-7 -2,-14 -7,-20 -4,-5 -11,-10 -21,-14 -7,-2 -21,-6 -43,-11 -22,-6 -37,-10 -46,-15 -11,-6 -20,-14 -25,-22 -6,-9 -9,-19 -9,-30 0,-12 4,-24 11,-34 7,-10 17,-18 30,-24 13,-5 27,-8 43,-8 18,0 34,3 47,9 14,5 24,14 31,25 8,11 12,23 12,37l-30 3c-2,-15 -7,-27 -17,-34 -9,-8 -23,-12 -41,-12 -19,0 -33,3 -42,10 -9,7 -13,16 -13,26 0,8 3,15 9,21 6,5 22,11 48,17 25,6 43,11 53,15 13,7 24,15 30,24 7,10 10,22 10,34 0,13 -3,25 -11,36 -7,11 -17,20 -31,26 -14,7 -29,10 -46,10 -22,0 -40,-4 -54,-10 -15,-6 -26,-16 -34,-28 -9,-13 -13,-27 -14,-43zm403 -7l32 8c-7,26 -19,46 -36,59 -17,14 -38,21 -63,21 -26,0 -46,-6 -63,-16 -16,-11 -28,-26 -36,-46 -9,-19 -13,-41 -13,-63 0,-25 5,-47 14,-65 10,-19 23,-33 41,-43 17,-9 37,-14 58,-14 24,0 44,6 60,18 16,12 27,29 34,51l-31 8c-6,-18 -14,-30 -24,-38 -11,-8 -24,-12 -40,-12 -18,0 -34,4 -46,13 -12,9 -21,21 -26,36 -5,14 -7,30 -7,45 0,21 3,38 9,53 6,16 15,27 27,34 13,8 26,12 41,12 17,0 32,-5 44,-16 13,-10 21,-25 25,-45zm-580 393l29 -4c4,16 9,28 17,36 8,7 18,11 30,11 14,0 26,-5 35,-15 10,-9 14,-21 14,-35 0,-14 -4,-25 -13,-33 -9,-9 -20,-14 -34,-14 -5,0 -12,2 -20,4l3 -26c2,0 4,0 5,0 12,0 24,-3 34,-9 10,-7 15,-17 15,-30 0,-11 -4,-20 -11,-27 -8,-7 -17,-11 -29,-11 -11,0 -20,4 -28,11 -8,7 -13,18 -15,33l-29 -6c4,-19 12,-35 24,-45 13,-11 29,-17 48,-17 13,0 25,3 36,9 11,5 19,13 25,23 6,9 9,19 9,30 0,11 -3,20 -9,28 -5,9 -13,15 -24,20 14,4 25,10 33,21 7,10 11,23 11,38 0,21 -7,39 -23,53 -15,15 -34,22 -57,22 -21,0 -39,-6 -52,-19 -14,-12 -22,-28 -24,-48zm185 -55c0,-28 3,-51 9,-68 6,-17 14,-30 26,-40 11,-9 26,-14 43,-14 13,0 24,3 34,8 9,5 17,13 24,22 6,10 11,22 14,36 4,14 6,33 6,56 0,28 -3,51 -9,68 -6,17 -14,31 -26,40 -11,9 -26,14 -43,14 -23,0 -41,-8 -54,-25 -16,-20 -24,-52 -24,-97zm30 0c0,40 5,66 14,79 9,13 21,19 34,19 13,0 25,-6 34,-19 9,-13 14,-39 14,-79 0,-39 -5,-65 -14,-78 -9,-13 -21,-19 -34,-19 -14,0 -25,5 -33,17 -10,14 -15,41 -15,80zm141 118l92 -239 34 0 98 239 -36 0 -28 -72 -100 0 -26 72 -34 0zm69 -98l81 0 -25 -66c-7,-20 -13,-37 -17,-50 -3,16 -7,31 -13,46l-26 70zm-993 -859l-62 -160 23 0 41 116c4,9 6,18 9,26 2,-9 5,-17 8,-26l43 -116 22 0 -62 160 -22 0zm141 -26l0 -44 -43 0 0 -18 43 0 0 -43 19 0 0 43 43 0 0 18 -43 0 0 44 -19 0zm-186 564l0 -119 16 0 0 119 -16 0zm42 0l0 -87 13 0 0 13c7,-10 16,-14 28,-14 5,0 10,1 14,2 4,2 8,5 10,8 2,3 4,6 4,11 1,2 1,7 1,14l0 53 -14 0 0 -53c0,-6 -1,-10 -2,-13 -1,-3 -3,-5 -6,-7 -3,-2 -6,-3 -10,-3 -7,0 -12,2 -16,6 -5,4 -7,12 -7,23l0 47 -15 0zm-20 197l-46 -120 17 0 31 87c3,7 5,13 6,19 2,-6 4,-13 7,-19l32 -87 16 0 -46 120 -17 0zm106 -20l0 -32 -32 0 0 -14 32 0 0 -33 14 0 0 33 33 0 0 14 -33 0 0 32 -14 0zm-90 169l0 -14 50 0 0 44c-8,6 -16,11 -24,14 -8,3 -17,5 -25,5 -12,0 -23,-3 -32,-8 -10,-5 -17,-12 -22,-21 -5,-10 -7,-20 -7,-32 0,-12 2,-23 7,-33 5,-10 12,-17 21,-22 9,-5 20,-7 31,-7 9,0 17,1 24,4 7,3 12,6 16,11 4,5 7,12 9,20l-14 4c-2,-6 -4,-11 -7,-14 -2,-4 -6,-7 -11,-9 -5,-2 -10,-3 -16,-3 -8,0 -14,1 -19,3 -5,3 -10,5 -13,9 -3,4 -6,8 -7,12 -3,7 -5,15 -5,24 0,11 2,20 6,27 3,7 9,12 15,16 7,3 15,5 23,5 7,0 13,-1 20,-4 6,-3 11,-6 15,-9l0 -22 -35 0zm73 47l0 -119 16 0 63 93 0 -93 15 0 0 119 -16 0 -63 -94 0 94 -15 0zm121 0l0 -119 41 0c9,0 16,0 21,1 7,2 13,5 18,9 6,5 11,12 14,20 3,8 4,18 4,29 0,9 -1,17 -3,24 -2,7 -5,12 -8,17 -3,5 -7,8 -11,11 -4,3 -8,5 -14,6 -6,1 -12,2 -19,2l-43 0zm16 -14l25 0c8,0 14,-1 18,-2 5,-2 9,-4 11,-6 4,-4 7,-9 9,-16 2,-6 3,-14 3,-23 0,-12 -2,-22 -6,-28 -4,-7 -9,-12 -15,-14 -4,-2 -11,-2 -20,-2l-25 0 0 91zm-194 551l0 -19 67 0 0 59c-10,8 -21,15 -32,19 -11,4 -22,6 -34,6 -15,0 -29,-3 -42,-10 -13,-7 -23,-17 -29,-29 -7,-13 -10,-27 -10,-43 0,-15 3,-29 10,-43 6,-13 16,-23 28,-30 12,-6 26,-10 42,-10 11,0 22,2 31,6 9,4 17,9 22,16 5,6 9,15 12,26l-19 5c-3,-8 -6,-15 -9,-19 -4,-5 -9,-9 -15,-11 -7,-3 -14,-5 -22,-5 -10,0 -18,2 -25,5 -7,3 -13,7 -17,11 -4,5 -8,10 -10,16 -4,10 -6,21 -6,32 0,14 2,26 7,36 5,10 12,17 21,21 10,5 20,7 30,7 9,0 18,-2 27,-5 9,-4 15,-7 20,-11l0 -30 -47 0zm98 62l0 -159 22 0 83 125 0 -125 20 0 0 159 -21 0 -84 -125 0 125 -20 0zm161 0l0 -159 55 0c12,0 21,1 28,2 9,2 17,6 23,12 9,7 15,16 19,27 4,11 6,24 6,38 0,12 -1,23 -4,32 -3,9 -6,17 -11,23 -4,6 -9,11 -14,15 -5,3 -12,6 -19,8 -8,1 -16,2 -26,2l-57 0zm21 -18l34 0c10,0 19,-1 24,-3 6,-2 11,-5 15,-9 5,-5 9,-11 11,-20 3,-8 5,-18 5,-31 0,-16 -3,-29 -9,-38 -5,-9 -12,-15 -20,-18 -5,-2 -14,-3 -27,-3l-33 0 0 122zm1261 -1362l61 -159 23 0 65 159 -24 0 -18 -48 -67 0 -18 48 -22 0zm46 -65l54 0 -17 -44c-5,-14 -8,-25 -11,-34 -2,11 -5,21 -9,31l-17 47zm-26 648l0 -159 60 0c12,0 21,2 29,5 7,3 13,8 17,15 4,7 6,14 6,21 0,7 -2,13 -5,19 -4,6 -9,11 -17,15 10,2 17,7 22,14 5,7 8,15 8,24 0,8 -2,15 -5,21 -3,6 -7,11 -11,15 -5,3 -11,6 -18,8 -7,1 -15,2 -25,2l-61 0zm21 -92l34 0c10,0 16,-1 20,-2 6,-1 10,-4 13,-8 2,-3 4,-8 4,-14 0,-5 -2,-10 -4,-14 -3,-4 -6,-6 -11,-8 -5,-1 -13,-2 -24,-2l-32 0 0 48zm0 74l40 0c6,0 11,-1 14,-1 5,-1 9,-2 12,-4 3,-3 6,-5 8,-9 2,-4 3,-9 3,-14 0,-6 -1,-11 -4,-15 -3,-5 -8,-8 -13,-10 -5,-1 -13,-2 -23,-2l-37 0 0 55zm93 551l21 6c-4,17 -12,30 -24,39 -11,9 -25,14 -42,14 -17,0 -31,-4 -41,-11 -11,-6 -19,-17 -25,-30 -5,-13 -8,-27 -8,-42 0,-17 3,-31 9,-44 7,-12 16,-21 27,-28 12,-6 25,-9 39,-9 16,0 29,4 40,12 11,8 18,19 23,34l-21 5c-4,-12 -9,-20 -16,-26 -7,-5 -16,-7 -27,-7 -12,0 -22,2 -30,8 -8,6 -14,14 -17,24 -4,10 -5,20 -5,30 0,14 1,26 5,36 4,10 10,17 19,22 8,5 17,8 27,8 11,0 21,-3 30,-10 8,-7 13,-17 16,-31z"  fill="none" stroke-width="6.94488" stroke="#373435"/>
        <line y2="511"  fill="none" x1="2346" x2="2691" stroke-width="6.94488" y1="511" stroke="#373435"/>
        <line y2="511"  fill="none" x1="2346" x2="2691" stroke-width="6.94488" y1="511" stroke="#373435"/>
        <line y2="511"  fill="none" x1="2346" x2="2691" stroke-width="6.94488" id="connector6pin" y1="511" stroke="#373435" gorn="0.1.4"/>
        <line y2="1102"  fill="none" x1="2346" x2="2691" stroke-width="6.94488" id="connector7pin" y1="1102" stroke="#373435" gorn="0.1.5"/>
        <line y2="1692"  fill="none" x1="2346" x2="2691" stroke-width="6.94488" id="connector8pin" y1="1692" stroke="#373435" gorn="0.1.6"/>
        <line y2="350"  fill="none" x1="96" x2="441" stroke-width="6.94488" id="connector9pin" y1="350" stroke="#373435" gorn="0.1.7"/>
        <line y2="1894"  fill="none" x1="96" x2="441" stroke-width="6.94488" id="connector5pin" y1="1894" stroke="#373435" gorn="0.1.8"/>
        <line y2="913"  fill="none" x1="96" x2="441" stroke-width="6.94488" id="connector10pin" y1="913" stroke="#373435" gorn="0.1.9"/>
        <line y2="1110"  fill="none" x1="96" x2="441" stroke-width="6.94488" id="connector3pin" y1="1110" stroke="#373435" gorn="0.1.10"/>
        <line y2="1307"  fill="none" x1="96" x2="441" stroke-width="6.94488" id="connector4pin" y1="1307" stroke="#373435" gorn="0.1.11"/>
    </g>
</svg>
