<?xml version='1.0' encoding='utf-8'?>
<!DOCTYPE svg>
<!-- Generator: Adobe Illustrator 16.0.0, SVG Export Plug-In . SVG Version: 6.00 Build 0)  -->
<svg xmlns="http://www.w3.org/2000/svg" enable-background="new 0 0 43.985 123.416" version="1.1" id="Layer_1" xmlns:xml="http://www.w3.org/XML/1998/namespace"  viewBox="0 0 43.985 123.416" gorn="0" x="0px" y="0px" height="1.71411in" xml:space="preserve" width="0.610903in">
    <desc>
        <referenceFile>sparkfun-displays_lcd-16x2_schematic.svg</referenceFile>
    </desc>
    <g id="schematic"  gorn="0.0">
        <rect fill="#FFFFFF"  x="7.55" y="0.562" height="122.398" width="36"/>
        <g transform="matrix(1 0 0 1 21.7913 57.2285)" >
            <text font-family="'DroidSans'" id="label"  gorn="0.0.1.0" font-size="4.25">LCD</text>
        </g>
        <rect fill="#FFFFFF"  x="7.55" y="0.562" height="122.398" width="36"/>
        <g transform="matrix(1 0 0 1 21.7913 57.2285)" >
            <text font-family="'DroidSans'" id="label_1_"  gorn="0.0.3.0" font-size="4.25">LCD</text>
        </g>
        <g transform="matrix(1 0 0 1 20.8772 61.7617)" >
            <text font-family="'DroidSans'" id="label_2_"  gorn="0.0.4.0" font-size="4.25">16X2</text>
        </g>
        <line fill="none"  y1="0.562" y2="122.96" stroke="#000000" x1="7.55" x2="7.55" stroke-linecap="round" stroke-width="0.9"/>
        <line fill="none"  y1="122.96" y2="122.96" stroke="#000000" x1="7.55" x2="43.55" stroke-linecap="round" stroke-width="0.9"/>
        <line fill="none"  y1="122.96" y2="0.562" stroke="#000000" x1="43.55" x2="43.55" stroke-linecap="round" stroke-width="0.9"/>
        <line fill="none"  y1="0.562" y2="0.562" stroke="#000000" x1="43.55" x2="7.55" stroke-linecap="round" stroke-width="0.9"/>
        <line fill="none" id="connector14pin"  y1="108.562" y2="108.562" stroke="#787878" x1="0.35" x2="7.55" stroke-linecap="round" gorn="0.0.9" stroke-width="0.75"/>
        <rect fill="none" id="connector14terminal"  gorn="0.0.10" x="0.35" y="108.562" height="0" width="0"/>
        <g transform="matrix(1 0 0 1 2.5725 107.5117)" >
            <text fill="#8C8C8C" font-family="'DroidSans'"  font-size="2.5">15</text>
        </g>
        <g transform="matrix(1 0 0 1 9.6506 109.2617)" >
            <text fill="#787878" font-family="'DroidSans'"  font-size="3.5">A</text>
        </g>
        <line fill="none" id="connector6pin"  y1="50.961" y2="50.961" stroke="#787878" x1="0.35" x2="7.55" stroke-linecap="round" gorn="0.0.13" stroke-width="0.75"/>
        <rect fill="none" id="connector6terminal"  gorn="0.0.14" x="0.35" y="50.961" height="0.001" width="0"/>
        <g transform="matrix(1 0 0 1 3.262 49.9121)" >
            <text fill="#8C8C8C" font-family="'DroidSans'"  font-size="2.5">7</text>
        </g>
        <g transform="matrix(1 0 0 1 9.6506 51.6621)" >
            <text fill="#787878" font-family="'DroidSans'"  font-size="3.5">DB0</text>
        </g>
        <line fill="none" id="connector7pin"  y1="58.162" y2="58.162" stroke="#787878" x1="0.35" x2="7.55" stroke-linecap="round" gorn="0.0.17" stroke-width="0.75"/>
        <rect fill="none" id="connector7terminal"  gorn="0.0.18" x="0.35" y="58.162" height="0" width="0"/>
        <g transform="matrix(1 0 0 1 3.262 57.1113)" >
            <text fill="#8C8C8C" font-family="'DroidSans'"  font-size="2.5">8</text>
        </g>
        <g transform="matrix(1 0 0 1 9.6506 58.8613)" >
            <text fill="#787878" font-family="'DroidSans'"  font-size="3.5">DB1</text>
        </g>
        <line fill="none" id="connector8pin"  y1="65.361" y2="65.361" stroke="#787878" x1="0.35" x2="7.55" stroke-linecap="round" gorn="0.0.21" stroke-width="0.75"/>
        <rect fill="none" id="connector8terminal"  gorn="0.0.22" x="0.35" y="65.361" height="0" width="0"/>
        <g transform="matrix(1 0 0 1 3.262 64.3125)" >
            <text fill="#8C8C8C" font-family="'DroidSans'"  font-size="2.5">9</text>
        </g>
        <g transform="matrix(1 0 0 1 9.6506 66.0625)" >
            <text fill="#787878" font-family="'DroidSans'"  font-size="3.5">DB2</text>
        </g>
        <line fill="none" id="connector9pin"  y1="72.562" y2="72.562" stroke="#787878" x1="0.35" x2="7.55" stroke-linecap="round" gorn="0.0.25" stroke-width="0.75"/>
        <rect fill="none" id="connector9terminal"  gorn="0.0.26" x="0.35" y="72.562" height="0" width="0"/>
        <g transform="matrix(1 0 0 1 2.5725 71.5117)" >
            <text fill="#8C8C8C" font-family="'DroidSans'"  font-size="2.5">10</text>
        </g>
        <g transform="matrix(1 0 0 1 9.6506 73.2617)" >
            <text fill="#787878" font-family="'DroidSans'"  font-size="3.5">DB3</text>
        </g>
        <line fill="none" id="connector10pin"  y1="79.762" y2="79.762" stroke="#787878" x1="0.35" x2="7.55" stroke-linecap="round" gorn="0.0.29" stroke-width="0.75"/>
        <rect fill="none" id="connector10terminal"  gorn="0.0.30" x="0.35" y="79.762" height="0" width="0"/>
        <g transform="matrix(1 0 0 1 2.5725 78.7109)" >
            <text fill="#8C8C8C" font-family="'DroidSans'"  font-size="2.5">11</text>
        </g>
        <g transform="matrix(1 0 0 1 9.6506 80.4609)" >
            <text fill="#787878" font-family="'DroidSans'"  font-size="3.5">DB4</text>
        </g>
        <line fill="none" id="connector11pin"  y1="86.96" y2="86.96" stroke="#787878" x1="0.35" x2="7.55" stroke-linecap="round" gorn="0.0.33" stroke-width="0.75"/>
        <rect fill="none" id="connector11terminal"  gorn="0.0.34" x="0.35" y="86.96" height="0" width="0"/>
        <g transform="matrix(1 0 0 1 2.5725 85.9121)" >
            <text fill="#8C8C8C" font-family="'DroidSans'"  font-size="2.5">12</text>
        </g>
        <g transform="matrix(1 0 0 1 9.6506 87.6621)" >
            <text fill="#787878" font-family="'DroidSans'"  font-size="3.5">DB5</text>
        </g>
        <line fill="none" id="connector12pin"  y1="94.161" y2="94.161" stroke="#787878" x1="0.35" x2="7.55" stroke-linecap="round" gorn="0.0.37" stroke-width="0.75"/>
        <rect fill="none" id="connector12terminal"  gorn="0.0.38" x="0.35" y="94.161" height="0" width="0"/>
        <g transform="matrix(1 0 0 1 2.5725 93.1113)" >
            <text fill="#8C8C8C" font-family="'DroidSans'"  font-size="2.5">13</text>
        </g>
        <g transform="matrix(1 0 0 1 9.6506 94.8613)" >
            <text fill="#787878" font-family="'DroidSans'"  font-size="3.5">DB6</text>
        </g>
        <line fill="none" id="connector13pin"  y1="101.36" y2="101.36" stroke="#787878" x1="0.35" x2="7.55" stroke-linecap="round" gorn="0.0.41" stroke-width="0.75"/>
        <rect fill="none" id="connector13terminal"  gorn="0.0.42" x="0.35" y="101.36" height="0" width="0"/>
        <g transform="matrix(1 0 0 1 2.5725 100.3125)" >
            <text fill="#8C8C8C" font-family="'DroidSans'"  font-size="2.5">14</text>
        </g>
        <g transform="matrix(1 0 0 1 9.6506 102.0625)" >
            <text fill="#787878" font-family="'DroidSans'"  font-size="3.5">DB7</text>
        </g>
        <line fill="none" id="connector5pin"  y1="43.762" y2="43.762" stroke="#787878" x1="0.35" x2="7.55" stroke-linecap="round" gorn="0.0.45" stroke-width="0.75"/>
        <rect fill="none" id="connector5terminal"  gorn="0.0.46" x="0.35" y="43.762" height="0" width="0"/>
        <g transform="matrix(1 0 0 1 3.262 42.7129)" >
            <text fill="#8C8C8C" font-family="'DroidSans'"  font-size="2.5">6</text>
        </g>
        <g transform="matrix(1 0 0 1 9.6506 44.4609)" >
            <text fill="#787878" font-family="'DroidSans'"  font-size="3.5">E</text>
        </g>
        <line fill="none" id="connector15pin"  y1="115.761" y2="115.761" stroke="#787878" x1="0.35" x2="7.55" stroke-linecap="round" gorn="0.0.49" stroke-width="0.75"/>
        <rect fill="none" id="connector15terminal"  gorn="0.0.50" x="0.35" y="115.761" height="0" width="0"/>
        <g transform="matrix(1 0 0 1 2.5725 114.7109)" >
            <text fill="#8C8C8C" font-family="'DroidSans'"  font-size="2.5">16</text>
        </g>
        <g transform="matrix(1 0 0 1 9.6506 116.4609)" >
            <text fill="#787878" font-family="'DroidSans'"  font-size="3.5">K</text>
        </g>
        <line fill="none" id="connector4pin"  y1="36.562" y2="36.562" stroke="#787878" x1="0.35" x2="7.55" stroke-linecap="round" gorn="0.0.53" stroke-width="0.75"/>
        <rect fill="none" id="connector4terminal"  gorn="0.0.54" x="0.35" y="36.562" height="0" width="0"/>
        <g transform="matrix(1 0 0 1 3.262 35.5117)" >
            <text fill="#8C8C8C" font-family="'DroidSans'"  font-size="2.5">5</text>
        </g>
        <g transform="matrix(1 0 0 1 9.6506 37.2617)" >
            <text fill="#787878" font-family="'DroidSans'"  font-size="3.5">R/W</text>
        </g>
        <line fill="none" id="connector3pin"  y1="29.361" y2="29.361" stroke="#787878" x1="0.35" x2="7.55" stroke-linecap="round" gorn="0.0.57" stroke-width="0.75"/>
        <rect fill="none" id="connector3terminal"  gorn="0.0.58" x="0.35" y="29.361" height="0" width="0"/>
        <g transform="matrix(1 0 0 1 3.262 28.3125)" >
            <text fill="#8C8C8C" font-family="'DroidSans'"  font-size="2.5">4</text>
        </g>
        <g transform="matrix(1 0 0 1 9.6506 30.0625)" >
            <text fill="#787878" font-family="'DroidSans'"  font-size="3.5">RS</text>
        </g>
        <line fill="none" id="connector1pin"  y1="14.961" y2="14.961" stroke="#787878" x1="0.35" x2="7.55" stroke-linecap="round" gorn="0.0.61" stroke-width="0.75"/>
        <rect fill="none" id="connector1terminal"  gorn="0.0.62" x="0.35" y="14.961" height="0" width="0"/>
        <g transform="matrix(1 0 0 1 3.262 13.9121)" >
            <text fill="#8C8C8C" font-family="'DroidSans'"  font-size="2.5">2</text>
        </g>
        <g transform="matrix(1 0 0 1 9.6506 15.6621)" >
            <text fill="#787878" font-family="'DroidSans'"  font-size="3.5">VDD</text>
        </g>
        <line fill="none" id="connector2pin"  y1="22.162" y2="22.162" stroke="#787878" x1="0.35" x2="7.55" stroke-linecap="round" gorn="0.0.65" stroke-width="0.75"/>
        <rect fill="none" id="connector2terminal"  gorn="0.0.66" x="0.35" y="22.162" height="0" width="0"/>
        <g transform="matrix(1 0 0 1 3.262 21.1113)" >
            <text fill="#8C8C8C" font-family="'DroidSans'"  font-size="2.5">3</text>
        </g>
        <g transform="matrix(1 0 0 1 9.6506 22.8613)" >
            <text fill="#787878" font-family="'DroidSans'"  font-size="3.5">VO</text>
        </g>
        <line fill="none" id="connector0pin"  y1="7.761" y2="7.761" stroke="#787878" x1="0.35" x2="7.55" stroke-linecap="round" gorn="0.0.69" stroke-width="0.75"/>
        <rect fill="none" id="connector0terminal"  gorn="0.0.70" x="0.35" y="7.761" height="0" width="0"/>
        <g transform="matrix(1 0 0 1 3.262 6.7129)" >
            <text fill="#8C8C8C" font-family="'DroidSans'"  font-size="2.5">1</text>
        </g>
        <g transform="matrix(1 0 0 1 9.6506 8.4609)" >
            <text fill="#787878" font-family="'DroidSans'"  font-size="3.5">VSS</text>
        </g>
    </g>
</svg>
