<?xml version='1.0' encoding='UTF-8'?>
<!DOCTYPE svg>
<!-- Creator: CorelDRAW X8 -->
<svg xmlns="http://www.w3.org/2000/svg" xml:space="preserve" xmlns:xml="http://www.w3.org/XML/1998/namespace" clip-rule="evenodd" viewBox="0 0 5118 1181"  version="1.1" text-rendering="geometricPrecision" height="1.1811in" shape-rendering="geometricPrecision" width="5.11811in" image-rendering="optimizeQuality" fill-rule="evenodd">
    <desc >
        <referenceFile >ESC.svg</referenceFile>
    </desc>
    <g  id="Layer_x0020_1" gorn="0.1">
        <metadata  id="CorelCorpID_0Corel-Layer"/>
        <rect x="1803"  fill="#FCE321" height="1026" stroke-width="6.94488" stroke="#373435" y="58" width="2187" rx="101" ry="101"/>
        <rect x="2509"  fill="#FFD34A" height="871" stroke-width="6.94488" stroke="#373435" y="125" width="898" rx="101" ry="101"/>
        <rect x="1871"  fill="#FFD34A" height="451" stroke-width="6.94488" stroke="#373435" y="561" width="251" rx="61" ry="61"/>
        <rect x="1869"  fill="#FFD34A" height="259" stroke-width="6.94488" stroke="#373435" y="150" width="251" rx="61" ry="35"/>
        <rect x="2199"  fill="#FFD34A" height="129" stroke-width="6.94488" stroke="#373435" y="581" width="251" rx="61" ry="17"/>
        <rect x="3874"  fill="#FFD34A" height="129.316" stroke-width="6.94488" stroke="#373435" y="157" width="77.1353" rx="19" ry="17"/>
        <rect x="3475"  fill="#FFD34A" height="461" stroke-width="6.94488" stroke="#373435" y="415" width="126" rx="30" ry="62"/>
        <path d="M2720 502l26 -4c3,15 9,26 16,32 7,7 16,10 27,10 12,0 23,-4 31,-13 9,-8 13,-19 13,-32 0,-12 -4,-22 -12,-30 -8,-8 -18,-12 -30,-12 -5,0 -11,1 -19,3l3 -23c2,0 3,0 4,0 12,0 22,-3 31,-8 9,-6 13,-15 13,-27 0,-10 -3,-18 -9,-25 -7,-6 -15,-9 -26,-9 -10,0 -19,3 -26,10 -7,6 -11,16 -13,29l-26 -5c3,-18 10,-31 22,-41 11,-10 25,-15 43,-15 11,0 22,3 32,8 10,5 17,12 23,20 5,9 8,18 8,28 0,9 -3,18 -8,25 -5,8 -12,14 -22,19 13,3 23,9 30,18 7,9 10,21 10,35 0,19 -7,35 -20,48 -14,13 -32,19 -53,19 -18,0 -34,-5 -47,-17 -12,-11 -19,-26 -21,-43zm167 -50c0,-25 3,-46 8,-61 5,-16 13,-28 24,-36 10,-9 23,-13 39,-13 11,0 21,3 30,7 9,5 16,12 22,20 5,9 10,20 13,32 3,13 5,30 5,51 0,26 -3,46 -8,62 -5,15 -13,27 -23,36 -11,8 -24,12 -39,12 -21,0 -38,-7 -49,-22 -15,-18 -22,-47 -22,-88zm27 0c0,36 5,59 13,71 8,12 18,18 31,18 12,0 22,-6 30,-18 8,-12 13,-35 13,-71 0,-35 -5,-59 -13,-70 -8,-12 -18,-18 -31,-18 -12,0 -22,5 -29,16 -9,13 -14,37 -14,72zm128 107l82 -216 32 0 88 216 -33 0 -25 -66 -91 0 -23 66 -30 0zm62 -89l73 0 -22 -60c-7,-18 -12,-33 -16,-45 -3,14 -7,28 -12,42l-23 63z"  fill="#4B4B4D" fill-rule="nonzero"/>
        <rect x="3990"  fill="#3E4095" height="61.2482" stroke-width="6.94488" stroke="#373435" y="196" width="877.74"/>
        <rect x="3990"  fill="#3E4095" height="61.2482" stroke-width="6.94488" stroke="#373435" y="524" width="877.74"/>
        <rect x="4851"  fill="#727376" height="41.7377" stroke-width="13.8858" stroke="#373435" y="204" width="106.818"/>
        <rect x="4851"  fill="#727376" height="41.7377" stroke-width="13.8858" stroke="#373435" y="532" width="106.818"/>
        <rect x="967"  fill="#ED3237" height="128" stroke-width="13.8858" stroke="#373435" y="205" width="837"/>
        <rect x="4851"  fill="#727376" height="41.7377" stroke-width="13.8858" stroke="#373435" y="204" width="106.818"/>
        <rect x="635"  fill="#727376" height="105" stroke-width="13.8858" stroke="#373435" y="219" width="327"/>
        <rect x="215"  fill="#D2D3D5" height="55.5897" stroke-width="6.94488" stroke="#373435" y="431" width="1588.63"/>
        <rect x="215"  fill="#ED3237" height="55.5897" stroke-width="6.94488" stroke="#373435" y="540" width="1588.63"/>
        <rect x="215"  fill="#4B4B4D" height="55.5897" stroke-width="6.94488" stroke="#373435" y="649" width="1588.63"/>
        <rect x="107"  fill="#848688" height="39.8483" stroke-width="6.94488" stroke="#373435" y="437" width="107.4"/>
        <rect x="107"  fill="#848688" height="39.8483" stroke-width="6.94488" stroke="#373435" y="546" width="107.4"/>
        <rect x="107"  fill="#848688" height="39.8483" stroke-width="6.94488" stroke="#373435" y="655" width="107.4"/>
        <rect x="3990"  fill="#3E4095" height="61.2482" stroke-width="6.94488" stroke="#373435" y="851" width="877.74"/>
        <rect x="4851"  fill="#727376" height="41.7377" stroke-width="13.8858" stroke="#373435" y="860" width="106.818"/>
        <rect x="967"  fill="#373435" height="128" stroke-width="6.94488" stroke="#373435" y="806" width="837"/>
        <rect x="635"  fill="#727376" height="105" stroke-width="13.8858" stroke="#373435" y="820" width="327"/>
    </g>
</svg>
