<?xml version='1.0' encoding='UTF-8'?>
<!DOCTYPE svg>
<!-- Creator: CorelDRAW X8 -->
<svg xmlns="http://www.w3.org/2000/svg" xml:space="preserve" xmlns:xml="http://www.w3.org/XML/1998/namespace" clip-rule="evenodd" viewBox="0 0 1969 3937"  version="1.1" text-rendering="geometricPrecision" height="3.93701in" shape-rendering="geometricPrecision" width="1.9685in" image-rendering="optimizeQuality" fill-rule="evenodd">
    <desc >
        <referenceFile >Li-po.svg</referenceFile>
    </desc>
    <g  id="Layer_x0020_1" gorn="0.1">
        <metadata  id="CorelCorpID_0Corel-Layer"/>
        <rect x="207"  fill="#E6E7E8" height="2877" stroke-width="6.94488" stroke="#373435" y="899" width="1609" rx="110" ry="106"/>
        <rect x="1305"  fill="#373435" height="698" stroke-width="6.94488" stroke="#373435" y="114" width="184" rx="87" ry="135"/>
        <rect x="283"  fill="#ED3237" height="2877" stroke-width="6.94488" stroke="#373435" y="899" width="1467" rx="110" ry="110"/>
        <rect x="452"  fill="#4B4B4D" height="2294" stroke-width="6.94488" stroke="#373435" y="1162" width="1128" rx="55" ry="55"/>
        <path d="M788 2651l-20 0 0 -54 -156 0 12 54 -17 0 -25 -81 186 0 0 -53 20 0 0 134zm0 -167l-20 0 0 -54 -156 0 12 54 -17 0 -25 -81 186 0 0 -53 20 0 0 134zm0 -206l-40 0 0 -40 40 0 0 40zm0 -128l-20 0 0 -54 -156 0 12 54 -17 0 -25 -81 186 0 0 -53 20 0 0 134zm0 -212l-201 68 0 -28 165 -56 -165 -57 0 -23 201 69 0 27zm314 708l-201 0 0 -27 181 0 0 -94 20 0 0 121zm0 -214l-127 0 0 53 -20 0 0 -80 147 0 0 27zm-181 3l-33 0 0 -33 33 0 0 33zm107 -122l-20 0 0 -110 20 0 0 110zm74 -169l-201 0 0 -57c0,-11 1,-22 3,-30 2,-12 7,-22 16,-29 9,-7 20,-10 35,-10 21,0 37,7 49,21 11,14 17,34 17,58l0 20 81 0 0 27zm-101 -27l0 -17c0,-22 -4,-36 -14,-43 -9,-7 -20,-11 -32,-11 -12,0 -21,4 -27,13 -3,3 -4,7 -5,12 -1,4 -2,11 -2,19l0 27 80 0zm104 -193c0,22 -7,40 -21,52 -15,12 -33,18 -56,18 -23,0 -41,-6 -55,-18 -15,-12 -22,-30 -22,-52 0,-22 7,-39 22,-51 14,-12 32,-18 55,-18 23,0 41,6 56,18 14,12 21,29 21,51zm-20 0c0,-13 -5,-23 -15,-30 -10,-7 -24,-11 -42,-11 -18,0 -31,4 -42,11 -10,7 -15,17 -15,30 0,13 5,23 15,30 11,8 24,11 42,11 18,0 32,-3 42,-11 10,-7 15,-17 15,-30zm330 887l-24 0c5,-13 7,-23 8,-28 1,-5 2,-10 2,-14 0,-13 -5,-23 -13,-30 -8,-7 -17,-10 -28,-10 -12,0 -22,4 -30,12 -8,8 -12,21 -12,39l0 13 -19 0 0 -8c0,-16 -2,-28 -6,-34 -3,-6 -8,-10 -14,-13 -5,-3 -12,-5 -19,-5 -9,0 -16,3 -22,9 -5,5 -8,13 -8,23 0,13 4,28 11,43l-23 0c-5,-15 -8,-30 -8,-45 0,-19 5,-33 13,-43 9,-9 20,-14 33,-14 7,0 13,1 19,4 6,3 12,6 17,12 5,5 10,11 14,20 6,-17 14,-28 23,-34 10,-5 20,-8 31,-8 11,0 21,3 31,8 10,6 17,13 22,23 5,10 8,23 8,38 0,14 -2,27 -6,42zm-4 -459c6,18 10,35 10,51 0,13 -3,26 -7,37 -5,11 -11,20 -19,27 -10,10 -21,16 -35,21 -14,4 -28,7 -43,7 -15,0 -30,-3 -44,-7 -14,-4 -26,-10 -35,-18 -9,-8 -16,-18 -21,-30 -4,-12 -7,-24 -7,-37 0,-15 3,-31 8,-49l24 0c-8,18 -12,35 -12,50 0,9 2,18 7,26 4,8 10,15 17,20 9,5 18,10 29,12 11,3 22,4 33,4 25,0 45,-6 59,-18 8,-6 13,-14 18,-23 4,-9 6,-19 6,-29 0,-12 -4,-27 -10,-44l22 0zm-1 -160c1,5 2,9 3,11 2,7 4,14 4,20 1,7 2,14 2,20 0,28 -7,48 -21,61 -15,12 -33,18 -54,18 -22,0 -40,-6 -56,-19 -15,-12 -23,-29 -23,-50 0,-18 6,-33 16,-43 11,-11 31,-17 59,-17l9 0 0 101c19,-1 32,-7 39,-17 7,-11 11,-23 11,-37 0,-15 -4,-30 -10,-48l21 0zm-81 101l0 -71 -4 0c-14,0 -24,3 -30,9 -7,7 -10,14 -10,24 0,10 4,19 12,26 7,7 18,11 32,12zm87 -199l-194 0 0 57 -20 0 0 -83 214 0 0 26zm0 -167l-194 0 0 57 -20 0 0 -83 214 0 0 26zm-6 -112l-24 0c8,-20 13,-38 13,-53 0,-13 -3,-22 -7,-28 -5,-7 -11,-10 -16,-10 -4,0 -8,2 -11,5 -3,3 -7,10 -10,20l-10 29c-3,10 -8,18 -14,24 -6,6 -14,9 -24,9 -12,0 -22,-4 -30,-14 -8,-9 -12,-24 -12,-44 0,-5 1,-11 1,-18 1,-6 3,-16 6,-30l21 0c-5,18 -8,34 -8,49 0,10 2,18 6,23 4,6 8,9 14,9 3,0 7,-1 9,-4 3,-3 6,-8 9,-16l11 -34c5,-13 11,-23 17,-27 6,-5 14,-7 22,-7 13,0 24,5 32,16 9,10 14,26 14,47 0,17 -3,35 -9,54z"  fill="#FFF212" fill-rule="nonzero"/>
        <g  transform="matrix(3.16451E-14 -2.38752 0.736681 3.89858E-14 1513.83 3483.42)">
            <g >
                <rect  fill="#727376" height="83.122" width="960.858" rx="126" ry="126"/>
            </g>
        </g>
        <rect x="248"  fill="#606062" height="92.768" stroke-width="6.94488" stroke="#373435" y="806" width="1520.12" rx="55" ry="55"/>
        <rect x="302"  fill="#EF4A52" height="153" y="901" width="1432" rx="188" ry="232"/>
        <rect x="490"  fill="#727376" height="61.2345" y="1171" width="1079.89" rx="142" ry="93"/>
        <rect x="514"  fill="#96989A" height="30.6172" y="1178" width="486.496" rx="64" ry="46"/>
        <rect x="364"  fill="#E86C73" height="40.4271" y="943" width="528.334" rx="69" ry="61"/>
        <rect x="552"  fill="#ED3237" height="687" y="114" width="184" rx="87" ry="133"/>
        <rect x="296"  fill="#EF4A52" height="153" y="3617" width="1432" rx="188" ry="232"/>
        <rect x="373"  fill="#E86C73" height="65.5253" y="3645" width="691.813" rx="91" ry="99"/>
        <rect x="561"  fill="#606062" height="58.9738" stroke-width="6.94488" stroke="#373435" y="109" width="168.142"/>
        <rect x="1313"  fill="#606062" height="58.9738" stroke-width="6.94488" stroke="#373435" y="109" width="168.142"/>
        <rect x="497"  fill="#727376" height="61.2345" y="744" width="290.639" rx="38" ry="93"/>
        <rect x="1247"  fill="#727376" height="61.2345" y="744" width="297.997" rx="39" ry="93"/>
    </g>
</svg>
